<svg width="400" height="360" viewBox="0 0 400 360" fill="none" xmlns="http://www.w3.org/2000/svg">
  <!--
    Senebiclabs — monogram seal, black on transparent. For light fabric.
    Same construction as logo.svg. See that file for the full concept note.
    Before printing: open in Inkscape → Text > Convert to Path.
  -->

  <path
    fill-rule="evenodd"
    fill="#0A0A0A"
    d="
      M 200 55  A 100 100 0 1 0 200 255 A 100 100 0 1 0 200 55  Z
      M 200 73  A 82  82  0 1 0 200 237 A 82  82  0 1 0 200 73  Z
    "
  />

  <line   x1="200" y1="220" x2="200" y2="94"  stroke="#0A0A0A" stroke-width="14" stroke-linecap="round"/>
  <path d="M 200 220 C 183 189 169 147 169 112" stroke="#0A0A0A" stroke-width="14" stroke-linecap="round"/>
  <path d="M 200 220 C 217 189 231 147 231 112" stroke="#0A0A0A" stroke-width="14" stroke-linecap="round"/>
  <path d="M 200 220 C 172 210 148 182 148 147" stroke="#0A0A0A" stroke-width="14" stroke-linecap="round"/>
  <path d="M 200 220 C 228 210 252 182 252 147" stroke="#0A0A0A" stroke-width="14" stroke-linecap="round"/>

  <circle cx="200" cy="220" r="9"  fill="#0A0A0A"/>
  <circle cx="200" cy="94"  r="7"  fill="#0A0A0A"/>
  <circle cx="169" cy="112" r="7"  fill="#0A0A0A"/>
  <circle cx="231" cy="112" r="7"  fill="#0A0A0A"/>
  <circle cx="148" cy="147" r="7"  fill="#0A0A0A"/>
  <circle cx="252" cy="147" r="7"  fill="#0A0A0A"/>

  <text
    x="200"
    y="294"
    font-family="'Helvetica Neue', Helvetica, Arial, sans-serif"
    font-size="26"
    font-weight="300"
    letter-spacing="9"
    fill="#0A0A0A"
    text-anchor="middle"
  >SENEBICLABS</text>

  <text
    x="200"
    y="324"
    font-family="'Helvetica Neue', Helvetica, Arial, sans-serif"
    font-size="9"
    font-weight="400"
    letter-spacing="4"
    fill="#0A0A0A"
    opacity="0.45"
    text-anchor="middle"
  >RESPIRATORY INTELLIGENCE</text>

</svg>
